<svg width="182" height="49" viewBox="0 0 182 49" fill="none" xmlns="http://www.w3.org/2000/svg">
<path fill-rule="evenodd" clip-rule="evenodd" d="M0 8.67169H22.1449V13.4732H0V8.67169ZM0 0H22.1449V4.80155H0V0ZM0 17.3434H22.1449V22.1449H0V17.3434Z" fill="#392E3C"/>
<path fill-rule="evenodd" clip-rule="evenodd" d="M26.4808 35.1363H48.6257V39.9378H26.4808V35.1363ZM26.4808 26.4646H48.6257V31.2661H26.4808V26.4646ZM26.4808 43.808H48.6257V48.6095H26.4808V43.808Z" fill="#7C5B49"/>
<path fill-rule="evenodd" clip-rule="evenodd" d="M35.3773 0H40.1788V22.1449H35.3773V0ZM43.8242 0H48.6257V22.1449H43.8242V0ZM26.4808 0H31.2823V22.1449H26.4808V0Z" fill="#343434"/>
<path fill-rule="evenodd" clip-rule="evenodd" d="M8.68775 26.4646H13.4893V48.6095H8.68775V26.4646ZM17.3273 26.4646H22.1289V48.6095H17.3273V26.4646ZM0 26.4646H4.80155V48.6095H0V26.4646Z" fill="#DA804E"/>
<path d="M66.9 20C66.7667 20 66.6467 19.9533 66.54 19.86C66.4467 19.7533 66.4 19.6333 66.4 19.5V6.5C66.4 6.35333 66.4467 6.23333 66.54 6.14C66.6467 6.04667 66.7667 6 66.9 6H69.06C69.38 6 69.6133 6.14667 69.76 6.44L73.28 12.74L76.8 6.44C76.9467 6.14667 77.18 6 77.5 6H79.64C79.7867 6 79.9067 6.04667 80 6.14C80.1067 6.23333 80.16 6.35333 80.16 6.5V19.5C80.16 19.6467 80.1067 19.7667 80 19.86C79.9067 19.9533 79.7867 20 79.64 20H77.26C77.1133 20 76.9867 19.9533 76.88 19.86C76.7867 19.7667 76.74 19.6467 76.74 19.5V12L74.5 16.18C74.3267 16.4867 74.0933 16.64 73.8 16.64H72.76C72.5867 16.64 72.4467 16.6 72.34 16.52C72.2333 16.44 72.14 16.3267 72.06 16.18L69.8 12V19.5C69.8 19.6333 69.7533 19.7533 69.66 19.86C69.5667 19.9533 69.4467 20 69.3 20H66.9ZM87.5425 20.2C85.9425 20.2 84.6825 19.7667 83.7625 18.9C82.8425 18.0333 82.3625 16.7733 82.3225 15.12V14.42C82.3758 12.8467 82.8625 11.62 83.7825 10.74C84.7158 9.84667 85.9625 9.4 87.5225 9.4C88.6558 9.4 89.6092 9.63333 90.3825 10.1C91.1692 10.5533 91.7558 11.18 92.1425 11.98C92.5425 12.78 92.7425 13.7 92.7425 14.74V15.22C92.7425 15.3533 92.6958 15.4733 92.6025 15.58C92.5092 15.6733 92.3892 15.72 92.2425 15.72H85.8425V15.86C85.8692 16.4867 86.0225 16.9933 86.3025 17.38C86.5825 17.7667 86.9892 17.96 87.5225 17.96C87.8558 17.96 88.1292 17.8933 88.3425 17.76C88.5558 17.6133 88.7492 17.44 88.9225 17.24C89.0425 17.0933 89.1358 17.0067 89.2025 16.98C89.2825 16.94 89.4025 16.92 89.5625 16.92H92.0425C92.1625 16.92 92.2625 16.96 92.3425 17.04C92.4358 17.1067 92.4825 17.2 92.4825 17.32C92.4825 17.6667 92.2825 18.0667 91.8825 18.52C91.4958 18.9733 90.9292 19.3667 90.1825 19.7C89.4358 20.0333 88.5558 20.2 87.5425 20.2ZM89.2225 13.74V13.7C89.2225 13.0467 89.0692 12.5333 88.7625 12.16C88.4692 11.7733 88.0558 11.58 87.5225 11.58C87.0025 11.58 86.5892 11.7733 86.2825 12.16C85.9892 12.5333 85.8425 13.0467 85.8425 13.7V13.74H89.2225ZM100.978 20.2C99.6442 20.2 98.6108 19.7533 97.8775 18.86V19.5C97.8775 19.6333 97.8308 19.7533 97.7375 19.86C97.6442 19.9533 97.5242 20 97.3775 20H95.1175C94.9842 20 94.8642 19.9533 94.7575 19.86C94.6642 19.7533 94.6175 19.6333 94.6175 19.5V6.3C94.6175 6.15333 94.6642 6.03333 94.7575 5.94C94.8642 5.84667 94.9842 5.8 95.1175 5.8H97.5575C97.7042 5.8 97.8242 5.84667 97.9175 5.94C98.0108 6.03333 98.0575 6.15333 98.0575 6.3V10.58C98.8042 9.79333 99.7775 9.4 100.978 9.4C102.271 9.4 103.291 9.82 104.038 10.66C104.784 11.5 105.184 12.64 105.238 14.08C105.251 14.2533 105.258 14.4933 105.258 14.8C105.258 15.0933 105.251 15.3267 105.238 15.5C105.171 16.9933 104.771 18.1533 104.038 18.98C103.304 19.7933 102.284 20.2 100.978 20.2ZM99.8975 17.52C100.524 17.52 100.971 17.3333 101.238 16.96C101.518 16.5867 101.678 16.0733 101.718 15.42C101.744 15.1533 101.758 14.9467 101.758 14.8C101.758 14.6533 101.744 14.4467 101.718 14.18C101.678 13.5267 101.518 13.0133 101.238 12.64C100.971 12.2667 100.524 12.08 99.8975 12.08C99.3108 12.08 98.8642 12.26 98.5575 12.62C98.2508 12.98 98.0842 13.4333 98.0575 13.98L98.0375 14.72L98.0575 15.48C98.0975 16.08 98.2575 16.5733 98.5375 16.96C98.8308 17.3333 99.2842 17.52 99.8975 17.52ZM112.035 20.2C110.435 20.2 109.175 19.7667 108.255 18.9C107.335 18.0333 106.855 16.7733 106.815 15.12V14.42C106.868 12.8467 107.355 11.62 108.275 10.74C109.208 9.84667 110.455 9.4 112.015 9.4C113.148 9.4 114.101 9.63333 114.875 10.1C115.661 10.5533 116.248 11.18 116.635 11.98C117.035 12.78 117.235 13.7 117.235 14.74V15.22C117.235 15.3533 117.188 15.4733 117.095 15.58C117.001 15.6733 116.881 15.72 116.735 15.72H110.335V15.86C110.361 16.4867 110.515 16.9933 110.795 17.38C111.075 17.7667 111.481 17.96 112.015 17.96C112.348 17.96 112.621 17.8933 112.835 17.76C113.048 17.6133 113.241 17.44 113.415 17.24C113.535 17.0933 113.628 17.0067 113.695 16.98C113.775 16.94 113.895 16.92 114.055 16.92H116.535C116.655 16.92 116.755 16.96 116.835 17.04C116.928 17.1067 116.975 17.2 116.975 17.32C116.975 17.6667 116.775 18.0667 116.375 18.52C115.988 18.9733 115.421 19.3667 114.675 19.7C113.928 20.0333 113.048 20.2 112.035 20.2ZM113.715 13.74V13.7C113.715 13.0467 113.561 12.5333 113.255 12.16C112.961 11.7733 112.548 11.58 112.015 11.58C111.495 11.58 111.081 11.7733 110.775 12.16C110.481 12.5333 110.335 13.0467 110.335 13.7V13.74H113.715ZM119.61 20C119.476 20 119.356 19.9533 119.25 19.86C119.156 19.7533 119.11 19.6333 119.11 19.5V6.3C119.11 6.15333 119.156 6.03333 119.25 5.94C119.356 5.84667 119.476 5.8 119.61 5.8H121.97C122.116 5.8 122.236 5.84667 122.33 5.94C122.423 6.03333 122.47 6.15333 122.47 6.3V19.5C122.47 19.6467 122.423 19.7667 122.33 19.86C122.236 19.9533 122.116 20 121.97 20H119.61ZM128.002 20C127.896 20 127.796 19.96 127.702 19.88C127.622 19.7867 127.582 19.6867 127.582 19.58C127.582 19.5 127.589 19.44 127.602 19.4L132.302 6.56C132.342 6.4 132.429 6.26667 132.562 6.16C132.696 6.05333 132.869 6 133.082 6H136.042C136.256 6 136.429 6.05333 136.562 6.16C136.696 6.26667 136.782 6.4 136.822 6.56L141.502 19.4L141.542 19.58C141.542 19.6867 141.496 19.7867 141.402 19.88C141.322 19.96 141.222 20 141.102 20H138.642C138.322 20 138.109 19.86 138.002 19.58L137.222 17.54H131.882L131.122 19.58C131.016 19.86 130.796 20 130.462 20H128.002ZM136.422 14.66L134.562 9.38L132.702 14.66H136.422ZM143.399 20C143.252 20 143.132 19.9533 143.039 19.86C142.945 19.7667 142.899 19.6467 142.899 19.5V10.1C142.899 9.95333 142.945 9.83333 143.039 9.74C143.132 9.64667 143.252 9.6 143.399 9.6H145.699C145.845 9.6 145.965 9.65333 146.059 9.76C146.165 9.85333 146.219 9.96667 146.219 10.1V10.9C146.952 10.0333 147.939 9.6 149.179 9.6H150.059C150.205 9.6 150.325 9.64667 150.419 9.74C150.512 9.83333 150.559 9.95333 150.559 10.1V12.16C150.559 12.2933 150.512 12.4133 150.419 12.52C150.325 12.6133 150.205 12.66 150.059 12.66H148.119C147.572 12.66 147.145 12.8133 146.839 13.12C146.545 13.4133 146.399 13.8333 146.399 14.38V19.5C146.399 19.6467 146.345 19.7667 146.239 19.86C146.145 19.9533 146.025 20 145.879 20H143.399ZM157.301 20C154.541 20 153.161 18.6867 153.161 16.06V12.22H151.601C151.454 12.22 151.327 12.1733 151.221 12.08C151.127 11.9867 151.081 11.8667 151.081 11.72V10.1C151.081 9.95333 151.127 9.83333 151.221 9.74C151.327 9.64667 151.454 9.6 151.601 9.6H153.161V6.3C153.161 6.15333 153.207 6.03333 153.301 5.94C153.407 5.84667 153.527 5.8 153.661 5.8H155.981C156.127 5.8 156.247 5.84667 156.341 5.94C156.434 6.03333 156.481 6.15333 156.481 6.3V9.6H158.981C159.127 9.6 159.247 9.64667 159.341 9.74C159.447 9.83333 159.501 9.95333 159.501 10.1V11.72C159.501 11.8667 159.447 11.9867 159.341 12.08C159.247 12.1733 159.127 12.22 158.981 12.22H156.481V15.78C156.481 16.7667 156.861 17.26 157.621 17.26H159.161C159.307 17.26 159.427 17.3067 159.521 17.4C159.614 17.4933 159.661 17.6133 159.661 17.76V19.5C159.661 19.6333 159.614 19.7533 159.521 19.86C159.427 19.9533 159.307 20 159.161 20H157.301Z" fill="#DA804E"/>
<path d="M70.424 43.16C68.9947 43.16 67.9067 42.776 67.16 42.008C66.424 41.24 66.0293 40.1787 65.976 38.824C65.9653 38.536 65.96 38.0667 65.96 37.416C65.96 36.7547 65.9653 36.2747 65.976 35.976C66.0293 34.632 66.4293 33.576 67.176 32.808C67.9227 32.0293 69.0053 31.64 70.424 31.64C71.3733 31.64 72.1787 31.8107 72.84 32.152C73.5013 32.4827 74.0027 32.92 74.344 33.464C74.6853 34.008 74.872 34.5893 74.904 35.208V35.24C74.904 35.3253 74.8667 35.4 74.792 35.464C74.728 35.5173 74.6533 35.544 74.568 35.544H73.688C73.4747 35.544 73.3413 35.4213 73.288 35.176C73.1067 34.376 72.7813 33.816 72.312 33.496C71.8427 33.1653 71.2133 33 70.424 33C68.5893 33 67.64 34.0187 67.576 36.056C67.5653 36.344 67.56 36.7867 67.56 37.384C67.56 37.9813 67.5653 38.4347 67.576 38.744C67.64 40.7813 68.5893 41.8 70.424 41.8C71.2133 41.8 71.8427 41.64 72.312 41.32C72.792 40.9893 73.1173 40.424 73.288 39.624C73.32 39.4853 73.368 39.3893 73.432 39.336C73.496 39.2827 73.5813 39.256 73.688 39.256H74.568C74.664 39.256 74.744 39.288 74.808 39.352C74.8827 39.4053 74.9147 39.48 74.904 39.576C74.872 40.2053 74.6853 40.792 74.344 41.336C74.0027 41.88 73.5013 42.3227 72.84 42.664C72.1787 42.9947 71.3733 43.16 70.424 43.16ZM79.3843 43C79.2776 43 79.1869 42.968 79.1123 42.904C79.0483 42.8293 79.0163 42.7387 79.0163 42.632V35.96H76.2323C76.1256 35.96 76.0349 35.928 75.9603 35.864C75.8963 35.7893 75.8643 35.6987 75.8643 35.592V35.048C75.8643 34.9413 75.8963 34.856 75.9603 34.792C76.0349 34.7173 76.1256 34.68 76.2323 34.68H83.2723C83.3789 34.68 83.4643 34.7173 83.5283 34.792C83.6029 34.856 83.6403 34.9413 83.6403 35.048V35.592C83.6403 35.6987 83.6029 35.7893 83.5283 35.864C83.4643 35.928 83.3789 35.96 83.2723 35.96H80.4883V42.632C80.4883 42.7387 80.4563 42.8293 80.3923 42.904C80.3283 42.968 80.2429 43 80.1363 43H79.3843ZM91.8598 34.68C91.9451 34.68 92.0198 34.712 92.0838 34.776C92.1478 34.84 92.1798 34.9147 92.1798 35C92.1798 35.0747 92.1531 35.1707 92.0998 35.288L89.0598 42.488L88.9158 42.808C88.6384 43.48 88.3824 44.0347 88.1478 44.472C87.9131 44.9093 87.6198 45.2773 87.2678 45.576C86.9158 45.8853 86.4998 46.04 86.0198 46.04H85.4118C85.3051 46.04 85.2144 46.008 85.1398 45.944C85.0758 45.88 85.0438 45.7893 85.0438 45.672V45.128C85.0438 45.0213 85.0758 44.9307 85.1398 44.856C85.2144 44.792 85.3051 44.76 85.4118 44.76H85.8278C86.0624 44.76 86.2544 44.712 86.4038 44.616C86.5531 44.5307 86.6864 44.3813 86.8038 44.168C86.9318 43.9547 87.0864 43.6293 87.2678 43.192L87.5398 42.536L84.4038 35.288C84.3504 35.1493 84.3238 35.0587 84.3238 35.016C84.3344 34.92 84.3718 34.84 84.4358 34.776C84.4998 34.712 84.5744 34.68 84.6598 34.68H85.4118C85.5931 34.68 85.7264 34.7707 85.8118 34.952L88.2598 40.824L90.7398 34.952C90.8144 34.7707 90.9478 34.68 91.1398 34.68H91.8598ZM93.3134 44.76C93.2067 44.76 93.116 44.7227 93.0414 44.648C92.9774 44.584 92.9454 44.4987 92.9454 44.392V42.088C92.9454 41.9813 92.9774 41.896 93.0414 41.832C93.116 41.7573 93.2067 41.72 93.3134 41.72H93.3934C93.8414 41.7093 94.1774 41.336 94.4014 40.6C94.636 39.864 94.7534 38.696 94.7534 37.096V35.048C94.7534 34.9413 94.7854 34.856 94.8494 34.792C94.924 34.7173 95.0147 34.68 95.1214 34.68H100.225C100.332 34.68 100.417 34.7173 100.481 34.792C100.556 34.856 100.593 34.9413 100.593 35.048V41.688H101.345C101.452 41.688 101.537 41.7253 101.601 41.8C101.676 41.864 101.713 41.9493 101.713 42.056V44.392C101.713 44.4987 101.676 44.584 101.601 44.648C101.537 44.7227 101.452 44.76 101.345 44.76H100.593C100.487 44.76 100.396 44.7227 100.321 44.648C100.257 44.584 100.225 44.4987 100.225 44.392V43H94.4334V44.392C94.4334 44.4987 94.396 44.584 94.3214 44.648C94.2574 44.7227 94.172 44.76 94.0654 44.76H93.3134ZM99.1054 41.688V35.96H96.2094V37.272C96.2094 39.4053 95.9054 40.888 95.2974 41.72L99.1054 41.688ZM110.459 34.68C110.544 34.68 110.619 34.712 110.683 34.776C110.758 34.84 110.795 34.9147 110.795 35V42.632C110.795 42.7387 110.758 42.8293 110.683 42.904C110.619 42.968 110.534 43 110.427 43H109.675C109.568 43 109.478 42.968 109.403 42.904C109.339 42.8293 109.307 42.7387 109.307 42.632V36.824L104.875 42.76C104.758 42.92 104.619 43 104.459 43H103.739C103.643 43 103.558 42.968 103.483 42.904C103.419 42.8293 103.387 42.7493 103.387 42.664V35.048C103.387 34.9413 103.419 34.856 103.483 34.792C103.558 34.7173 103.648 34.68 103.755 34.68H104.523C104.63 34.68 104.715 34.7173 104.779 34.792C104.854 34.856 104.891 34.9413 104.891 35.048V40.824L109.307 34.92C109.424 34.76 109.563 34.68 109.723 34.68H110.459ZM119.089 34.68C119.196 34.68 119.281 34.7173 119.345 34.792C119.42 34.856 119.457 34.9413 119.457 35.048V42.632C119.457 42.7387 119.42 42.8293 119.345 42.904C119.281 42.968 119.196 43 119.089 43H118.321C118.214 43 118.124 42.968 118.049 42.904C117.985 42.8293 117.953 42.7387 117.953 42.632V40.024H116.241L114.433 42.76C114.39 42.824 114.332 42.8827 114.257 42.936C114.182 42.9787 114.102 43 114.017 43H113.249C113.153 43 113.073 42.968 113.009 42.904C112.945 42.84 112.913 42.7653 112.913 42.68C112.913 42.5733 112.95 42.4773 113.025 42.392L114.817 39.752C114.262 39.56 113.846 39.256 113.569 38.84C113.292 38.4133 113.153 37.9013 113.153 37.304C113.153 36.408 113.414 35.7467 113.937 35.32C114.47 34.8933 115.27 34.68 116.337 34.68H119.089ZM117.969 35.88H116.289C115.681 35.88 115.238 35.9867 114.961 36.2C114.684 36.4133 114.545 36.7813 114.545 37.304C114.545 37.7627 114.678 38.1307 114.945 38.408C115.222 38.6853 115.628 38.824 116.161 38.824H117.969V35.88ZM133.97 34.68C134.055 34.68 134.13 34.712 134.194 34.776C134.258 34.8293 134.29 34.8987 134.29 34.984V42.648C134.29 42.7547 134.258 42.84 134.194 42.904C134.13 42.968 134.05 43 133.954 43H133.17C133.063 43 132.978 42.968 132.914 42.904C132.85 42.84 132.818 42.7547 132.818 42.648V37.384L130.77 41.256C130.695 41.3947 130.62 41.5013 130.546 41.576C130.482 41.64 130.38 41.672 130.242 41.672H129.826C129.698 41.672 129.596 41.64 129.522 41.576C129.458 41.512 129.383 41.4053 129.298 41.256L127.266 37.48V42.648C127.266 42.7547 127.234 42.84 127.17 42.904C127.106 42.968 127.02 43 126.914 43H126.13C126.023 43 125.938 42.968 125.874 42.904C125.81 42.84 125.778 42.7547 125.778 42.648V34.984C125.778 34.9093 125.81 34.84 125.874 34.776C125.938 34.712 126.012 34.68 126.098 34.68H126.914C127.074 34.68 127.207 34.7653 127.314 34.936L130.034 40.024L132.77 34.936C132.855 34.7653 132.988 34.68 133.17 34.68H133.97ZM140.012 43.16C138.913 43.16 138.033 42.824 137.372 42.152C136.721 41.4693 136.364 40.5413 136.3 39.368L136.284 38.824L136.3 38.296C136.375 37.144 136.737 36.2267 137.388 35.544C138.049 34.8613 138.919 34.52 139.996 34.52C141.18 34.52 142.097 34.8987 142.748 35.656C143.399 36.4027 143.724 37.416 143.724 38.696V38.968C143.724 39.0747 143.687 39.1653 143.612 39.24C143.548 39.304 143.463 39.336 143.356 39.336H137.82V39.48C137.852 40.1733 138.06 40.7653 138.444 41.256C138.839 41.736 139.356 41.976 139.996 41.976C140.487 41.976 140.887 41.88 141.196 41.688C141.516 41.4853 141.751 41.2773 141.9 41.064C141.996 40.936 142.065 40.8613 142.108 40.84C142.161 40.808 142.252 40.792 142.38 40.792H143.164C143.26 40.792 143.34 40.8187 143.404 40.872C143.468 40.9253 143.5 41 143.5 41.096C143.5 41.3307 143.351 41.6133 143.052 41.944C142.764 42.2747 142.353 42.5627 141.82 42.808C141.297 43.0427 140.695 43.16 140.012 43.16ZM142.204 38.232V38.184C142.204 37.448 142.001 36.8507 141.596 36.392C141.201 35.9227 140.668 35.688 139.996 35.688C139.324 35.688 138.791 35.9227 138.396 36.392C138.012 36.8507 137.82 37.448 137.82 38.184V38.232H142.204ZM152.917 38.648C152.928 38.7547 152.933 38.9253 152.933 39.16C152.933 39.3627 152.928 39.5067 152.917 39.592C152.874 40.6693 152.528 41.5333 151.877 42.184C151.237 42.8347 150.33 43.16 149.157 43.16C147.952 43.16 147.034 42.8187 146.405 42.136C145.776 41.4533 145.44 40.5147 145.397 39.32L145.381 38.36L145.397 37.4C145.408 35.8747 145.61 34.7333 146.005 33.976C146.41 33.208 146.981 32.6587 147.717 32.328C148.464 31.9867 149.669 31.5973 151.333 31.16L151.717 31.064L151.797 31.048C151.882 31.048 151.957 31.08 152.021 31.144C152.096 31.1973 152.138 31.2613 152.149 31.336L152.277 31.992L152.293 32.088C152.293 32.1627 152.266 32.2267 152.213 32.28C152.17 32.3333 152.106 32.3707 152.021 32.392L151.221 32.584C149.994 32.8827 149.114 33.1387 148.581 33.352C148.048 33.5653 147.632 33.9013 147.333 34.36C147.045 34.808 146.885 35.48 146.853 36.376C147.109 35.992 147.472 35.6827 147.941 35.448C148.41 35.2027 148.906 35.08 149.429 35.08C150.506 35.08 151.344 35.4107 151.941 36.072C152.549 36.7227 152.874 37.5813 152.917 38.648ZM151.381 39.528C151.392 39.4533 151.397 39.3307 151.397 39.16C151.397 38.968 151.392 38.824 151.381 38.728C151.36 37.9493 151.157 37.3467 150.773 36.92C150.4 36.4827 149.909 36.264 149.301 36.264C148.618 36.264 148.058 36.4827 147.621 36.92C147.194 37.3467 146.965 37.9493 146.933 38.728L146.917 39.16L146.933 39.528C146.965 40.3173 147.178 40.9253 147.573 41.352C147.968 41.768 148.496 41.976 149.157 41.976C149.829 41.976 150.362 41.768 150.757 41.352C151.152 40.9253 151.36 40.3173 151.381 39.528ZM158.262 43.16C157.163 43.16 156.283 42.824 155.622 42.152C154.971 41.4693 154.614 40.5413 154.55 39.368L154.534 38.824L154.55 38.296C154.625 37.144 154.987 36.2267 155.638 35.544C156.299 34.8613 157.169 34.52 158.246 34.52C159.43 34.52 160.347 34.8987 160.998 35.656C161.649 36.4027 161.974 37.416 161.974 38.696V38.968C161.974 39.0747 161.937 39.1653 161.862 39.24C161.798 39.304 161.713 39.336 161.606 39.336H156.07V39.48C156.102 40.1733 156.31 40.7653 156.694 41.256C157.089 41.736 157.606 41.976 158.246 41.976C158.737 41.976 159.137 41.88 159.446 41.688C159.766 41.4853 160.001 41.2773 160.15 41.064C160.246 40.936 160.315 40.8613 160.358 40.84C160.411 40.808 160.502 40.792 160.63 40.792H161.414C161.51 40.792 161.59 40.8187 161.654 40.872C161.718 40.9253 161.75 41 161.75 41.096C161.75 41.3307 161.601 41.6133 161.302 41.944C161.014 42.2747 160.603 42.5627 160.07 42.808C159.547 43.0427 158.945 43.16 158.262 43.16ZM160.454 38.232V38.184C160.454 37.448 160.251 36.8507 159.846 36.392C159.451 35.9227 158.918 35.688 158.246 35.688C157.574 35.688 157.041 35.9227 156.646 36.392C156.262 36.8507 156.07 37.448 156.07 38.184V38.232H160.454ZM163.425 43C163.318 43 163.227 42.9627 163.153 42.888C163.078 42.8133 163.041 42.7227 163.041 42.616V42.024C163.041 41.9173 163.073 41.832 163.137 41.768C163.201 41.704 163.281 41.672 163.377 41.672C163.889 41.6507 164.267 41.288 164.513 40.584C164.769 39.8693 164.897 38.7067 164.897 37.096V35.048C164.897 34.9413 164.929 34.856 164.993 34.792C165.067 34.7173 165.158 34.68 165.265 34.68H170.353C170.459 34.68 170.545 34.7173 170.609 34.792C170.683 34.856 170.721 34.9413 170.721 35.048V42.632C170.721 42.7387 170.683 42.8293 170.609 42.904C170.545 42.968 170.459 43 170.353 43H169.585C169.478 43 169.393 42.968 169.329 42.904C169.265 42.8293 169.233 42.7387 169.233 42.632V35.96H166.353V37.272C166.353 39.3093 166.118 40.776 165.649 41.672C165.179 42.5573 164.438 43 163.425 43ZM180.178 34.68C180.263 34.68 180.338 34.712 180.402 34.776C180.477 34.84 180.514 34.9147 180.514 35V42.632C180.514 42.7387 180.477 42.8293 180.402 42.904C180.338 42.968 180.253 43 180.146 43H179.394C179.287 43 179.197 42.968 179.122 42.904C179.058 42.8293 179.026 42.7387 179.026 42.632V36.824L174.594 42.76C174.477 42.92 174.338 43 174.178 43H173.458C173.362 43 173.277 42.968 173.202 42.904C173.138 42.8293 173.106 42.7493 173.106 42.664V35.048C173.106 34.9413 173.138 34.856 173.202 34.792C173.277 34.7173 173.367 34.68 173.474 34.68H174.242C174.349 34.68 174.434 34.7173 174.498 34.792C174.573 34.856 174.61 34.9413 174.61 35.048V40.824L179.026 34.92C179.143 34.76 179.282 34.68 179.442 34.68H180.178Z" fill="#493B33"/>
</svg>
