<svg width="78" height="78" viewBox="0 0 78 78" fill="none" xmlns="http://www.w3.org/2000/svg">
<g opacity="0.7">
<path d="M78 39C78 49.3434 73.8911 59.2632 66.5772 66.5772C59.2632 73.8911 49.3434 78 39 78C28.6566 78 18.7368 73.8911 11.4228 66.5772C4.10892 59.2632 0 49.3434 0 39C0 28.6566 4.10892 18.7368 11.4228 11.4228C18.7368 4.10892 28.6566 0 39 0C49.3434 0 59.2632 4.10892 66.5772 11.4228C73.8911 18.7368 78 28.6566 78 39ZM41.4375 21.9375C41.4375 21.291 41.1807 20.671 40.7236 20.2139C40.2665 19.7568 39.6465 19.5 39 19.5C38.3535 19.5 37.7335 19.7568 37.2764 20.2139C36.8193 20.671 36.5625 21.291 36.5625 21.9375V36.5625H21.9375C21.291 36.5625 20.671 36.8193 20.2139 37.2764C19.7568 37.7335 19.5 38.3535 19.5 39C19.5 39.6465 19.7568 40.2665 20.2139 40.7236C20.671 41.1807 21.291 41.4375 21.9375 41.4375H36.5625V56.0625C36.5625 56.709 36.8193 57.329 37.2764 57.7861C37.7335 58.2432 38.3535 58.5 39 58.5C39.6465 58.5 40.2665 58.2432 40.7236 57.7861C41.1807 57.329 41.4375 56.709 41.4375 56.0625V41.4375H56.0625C56.709 41.4375 57.329 41.1807 57.7861 40.7236C58.2432 40.2665 58.5 39.6465 58.5 39C58.5 38.3535 58.2432 37.7335 57.7861 37.2764C57.329 36.8193 56.709 36.5625 56.0625 36.5625H41.4375V21.9375Z" fill="#343434"/>
</g>
</svg>
